<svg width="93" height="90" viewBox="0 0 93 90" fill="none" xmlns="http://www.w3.org/2000/svg">
<g filter="url(#filter0_d)">
<rect x="7" y="6" width="79" height="78" rx="39" fill="#0800D8"/>
</g>
<path d="M25.8889 48.338C25.4103 49.146 26.5296 50.6274 27.5578 51.7275C29.0688 53.3501 31.2161 55.0221 33.5858 56.4256C35.9556 57.8291 38.4421 58.9017 40.6029 59.4539C42.0618 59.8268 43.8988 60.0963 44.3774 59.2883C44.4013 59.2479 45.5179 57.3627 45.5179 57.3627C45.9087 56.7028 45.7585 55.8863 45.1836 55.5458C45.1836 55.5458 44.4915 55.1359 44.2569 54.9969C43.9049 54.7885 43.9401 54.3545 43.9401 54.3545L44.5368 47.0864C44.5757 46.6728 44.7938 45.9835 45.0171 45.6064L46.8356 42.5362C47.1546 41.9975 47.0772 41.4059 46.6431 41.1488C46.5141 41.0724 46.3808 41.0299 46.2119 41.0208L39.1298 40.537C38.5052 40.4945 37.7986 40.8581 37.4955 41.3698C37.3281 41.6526 36.8683 42.1079 36.5243 42.3408L30.3544 46.4171C30.3544 46.4171 30.062 46.5896 29.8157 46.4437C29.5576 46.2908 28.7833 45.8323 28.7833 45.8323C28.2085 45.4918 27.4202 45.7525 27.0294 46.4124C27.0294 46.4124 25.9208 48.2841 25.8889 48.338Z" fill="white"/>
<path d="M46.657 27.5874C46.786 27.6638 46.9193 27.7064 47.0882 27.7155L54.1703 28.1993C54.7831 28.2348 55.5413 27.8108 55.8922 27.2183L56.7935 25.6966C57.1125 25.158 57.0351 24.5664 56.601 24.3093C56.472 24.2329 56.3387 24.1903 56.1698 24.1812L49.0877 23.6974C48.4749 23.6619 47.7166 24.0859 47.3657 24.6784L46.4645 26.2001C46.1375 26.7522 46.2229 27.3303 46.657 27.5874Z" fill="white"/>
<path d="M43.3312 33.2027C43.4602 33.2791 43.5935 33.3217 43.7624 33.3308L50.8445 33.8146C51.4573 33.8501 52.2155 33.4261 52.5664 32.8336L53.4677 31.3119C53.7867 30.7733 53.7092 30.1817 53.2752 29.9246C53.1461 29.8482 53.0129 29.8056 52.844 29.7965L45.7619 29.3127C45.1491 29.2772 44.3908 29.7012 44.0399 30.2937L43.1387 31.8154C42.8116 32.3675 42.8971 32.9456 43.3312 33.2027Z" fill="white"/>
<path d="M49.9829 21.972C50.1119 22.0484 50.2452 22.0909 50.4141 22.1L57.4962 22.5839C58.0461 22.6185 58.7077 22.4647 58.9709 22.0203C59.1862 21.6567 59.1923 20.9509 59.1101 20.4475L58.3717 16.263C58.3078 15.9159 58.1215 15.6419 57.84 15.4751C57.5584 15.3084 57.2285 15.2767 56.8935 15.3875L52.8494 16.7576C52.2779 16.9466 51.6088 17.5144 51.2818 18.0665L49.7824 20.5981C49.4634 21.1368 49.5488 21.7149 49.9829 21.972Z" fill="white"/>
<path d="M40.0051 38.8181C40.1342 38.8945 40.2674 38.9371 40.4364 38.9462L47.5184 39.43C48.1312 39.4655 48.8895 39.0415 49.2404 38.449L50.1496 36.9138C50.4687 36.3752 50.3912 35.7836 49.9571 35.5265C49.8281 35.4501 49.6948 35.4076 49.5259 35.3985L42.4438 34.9146C41.831 34.8791 41.0728 35.3031 40.7218 35.8957L39.8206 37.4173C39.4856 37.9829 39.5711 38.561 40.0051 38.8181Z" fill="white"/>
<path d="M36.7178 60.1542C36.1796 60.5812 35.6729 61.0087 35.1192 61.4084C33.6483 62.4471 32.1079 63.3356 30.5135 64.1011C29.8506 64.4178 29.1758 64.7276 28.4936 64.9966C28.4866 64.9015 28.4715 64.8198 28.4645 64.7247C28.3029 62.9373 28.2633 61.1313 28.3772 59.307C28.4358 58.4322 28.5455 57.5513 28.6787 56.6843C28.7659 56.1357 28.8883 55.6079 29.0187 55.0667L28.5847 54.8096C27.8701 55.6415 27.2921 56.5906 26.8277 57.5888C26.1507 59.0796 25.7206 60.6621 25.5025 62.261C25.2638 63.975 25.2569 65.6989 25.4983 67.3516C25.5316 67.5897 25.5532 67.8207 25.626 68.0457C25.7179 68.3185 25.8888 68.5652 26.1192 68.738C26.3378 68.9039 26.6161 68.996 26.899 68.9998C27.1388 68.9963 27.3673 68.9316 27.6038 68.8534C29.0227 68.3841 30.428 67.6702 31.7127 66.8122C34.0685 65.2426 36.3281 62.9793 37.409 60.2179L36.9866 59.9678C36.8998 60.0073 36.8088 60.0807 36.7178 60.1542Z" fill="#D80009"/>
<path d="M53.6172 51.3008V48.3477H61.2812V40.6309H64.2871V48.3477H71.9512V51.3008H64.2871V59H61.2812V51.3008H53.6172Z" fill="white"/>
<defs>
<filter id="filter0_d" x="0" y="0" width="93" height="92" filterUnits="userSpaceOnUse" color-interpolation-filters="sRGB">
<feFlood flood-opacity="0" result="BackgroundImageFix"/>
<feColorMatrix in="SourceAlpha" type="matrix" values="0 0 0 0 0 0 0 0 0 0 0 0 0 0 0 0 0 0 127 0"/>
<feOffset dy="1"/>
<feGaussianBlur stdDeviation="3.5"/>
<feColorMatrix type="matrix" values="0 0 0 0 0 0 0 0 0 0 0 0 0 0 0 0 0 0 0.19 0"/>
<feBlend mode="normal" in2="BackgroundImageFix" result="effect1_dropShadow"/>
<feBlend mode="normal" in="SourceGraphic" in2="effect1_dropShadow" result="shape"/>
</filter>
</defs>
</svg>
