<svg width="75" height="75" viewBox="0 0 75 75" fill="none" xmlns="http://www.w3.org/2000/svg">
<g filter="url(#filter0_d)">
<path d="M48.9375 28.875C48.9375 31.9084 47.7325 34.8176 45.5875 36.9625C43.4426 39.1075 40.5334 40.3125 37.5 40.3125C34.4666 40.3125 31.5574 39.1075 29.4125 36.9625C27.2675 34.8176 26.0625 31.9084 26.0625 28.875C26.0625 25.8416 27.2675 22.9324 29.4125 20.7875C31.5574 18.6425 34.4666 17.4375 37.5 17.4375C40.5334 17.4375 43.4426 18.6425 45.5875 20.7875C47.7325 22.9324 48.9375 25.8416 48.9375 28.875Z" fill="#0800D8"/>
<path fill-rule="evenodd" clip-rule="evenodd" d="M7 36.5C7 28.4109 10.2134 20.6531 15.9332 14.9332C21.6531 9.21338 29.4109 6 37.5 6C45.5891 6 53.3469 9.21338 59.0668 14.9332C64.7866 20.6531 68 28.4109 68 36.5C68 44.5891 64.7866 52.3469 59.0668 58.0668C53.3469 63.7866 45.5891 67 37.5 67C29.4109 67 21.6531 63.7866 15.9332 58.0668C10.2134 52.3469 7 44.5891 7 36.5ZM37.5 9.8125C32.4743 9.81277 27.5508 11.2321 23.2962 13.9072C19.0415 16.5823 15.6288 20.4044 13.4506 24.9336C11.2725 29.4628 10.4175 34.515 10.9841 39.5087C11.5506 44.5023 13.5158 49.2346 16.6533 53.1606C19.3601 48.7991 25.3191 44.125 37.5 44.125C49.6809 44.125 55.6361 48.7953 58.3468 53.1606C61.4842 49.2346 63.4494 44.5023 64.0159 39.5087C64.5825 34.515 63.7275 29.4628 61.5494 24.9336C59.3712 20.4044 55.9585 16.5823 51.7038 13.9072C47.4492 11.2321 42.5257 9.81277 37.5 9.8125Z" fill="#0800D8"/>
</g>
<defs>
<filter id="filter0_d" x="0" y="0" width="75" height="75" filterUnits="userSpaceOnUse" color-interpolation-filters="sRGB">
<feFlood flood-opacity="0" result="BackgroundImageFix"/>
<feColorMatrix in="SourceAlpha" type="matrix" values="0 0 0 0 0 0 0 0 0 0 0 0 0 0 0 0 0 0 127 0"/>
<feOffset dy="1"/>
<feGaussianBlur stdDeviation="3.5"/>
<feColorMatrix type="matrix" values="0 0 0 0 0 0 0 0 0 0 0 0 0 0 0 0 0 0 0.19 0"/>
<feBlend mode="normal" in2="BackgroundImageFix" result="effect1_dropShadow"/>
<feBlend mode="normal" in="SourceGraphic" in2="effect1_dropShadow" result="shape"/>
</filter>
</defs>
</svg>
